G04 Layer: BottomSilkscreenLayer*
G04 EasyEDA Pro v3.2.135, 2026-05-31 20:18:43*
G04 Gerber Generator version 0.3*
G04 Scale: 100 percent, Rotated: No, Reflected: No*
G04 Dimensions in millimeters*
G04 Leading zeros omitted, absolute positions, 4 integers and 5 decimals*
G04 Generated by one-click*
G04 Object Configs: Pad,Via,Track,Text,Image,Dimension,BoardOutline,BoardCutout,CopperFilled,SolidRegion,FPCStiffener,Line,PlaneZone,ComponentProperty,ComponentSilkscreen,TearDrop*
G04 Layer Configs: 1,2,3,4,5,6,7,8,9,10,11,13,14,71,56*
G04 Copper Areas: 0*
%FSLAX45Y45*%
%MOMM*%
%ADD10C,0.1524*%
%ADD11C,0.3755*%
G75*


G04 Text Start*
G54D10*
G01X6257798Y2352040D02*
G01X6260846Y2358390D01*
G01X6267196Y2364486D01*
G01X6273292Y2367534D01*
G01X6285738Y2367534D01*
G01X6291834Y2364486D01*
G01X6298184Y2358390D01*
G01X6301232Y2352040D01*
G01X6304280Y2342896D01*
G01X6304280Y2327402D01*
G01X6301232Y2318004D01*
G01X6298184Y2311908D01*
G01X6291834Y2305558D01*
G01X6285738Y2302510D01*
G01X6273292Y2302510D01*
G01X6267196Y2305558D01*
G01X6260846Y2311908D01*
G01X6257798Y2318004D01*
G01X6227572Y2355088D02*
G01X6221476Y2358390D01*
G01X6212332Y2367534D01*
G01X6212332Y2302510D01*
G04 Text End*

G04 PolygonModel Start*
G01X6721620Y2179739D02*
G01X6580619Y2179739D01*
G01X6580619Y2360460D02*
G01X6721620Y2360460D01*
G01X6736860Y2345220D02*
G01X6736860Y2194979D01*
G01X6359380Y2179739D02*
G01X6500381Y2179739D01*
G01X6500381Y2360460D02*
G01X6359380Y2360460D01*
G01X6344140Y2345220D02*
G01X6344140Y2194979D01*
G01X6721620Y2360460D02*
G02X6736860Y2345220I0J-15240D01*
G01X6736860Y2194979D02*
G02X6721620Y2179739I-15240J0D01*
G01X6359380Y2360460D02*
G03X6344140Y2345220I0J-15240D01*
G01X6344140Y2194979D02*
G03X6359380Y2179739I15240J0D01*

M02*

