G04 Layer: TopSolderMaskLayer*
G04 EasyEDA Pro v3.2.135, 2026-05-31 20:18:43*
G04 Gerber Generator version 0.3*
G04 Scale: 100 percent, Rotated: No, Reflected: No*
G04 Dimensions in millimeters*
G04 Leading zeros omitted, absolute positions, 4 integers and 5 decimals*
G04 Generated by one-click*
G04 Object Configs: Pad,Via,Track,Text,Image,Dimension,BoardOutline,BoardCutout,CopperFilled,SolidRegion,FPCStiffener,Line,PlaneZone,ComponentProperty,ComponentSilkscreen,TearDrop*
G04 Layer Configs: 1,2,3,4,5,6,7,8,9,10,11,13,14,71,56*
G04 Copper Areas: 0*
%FSLAX45Y45*%
%MOMM*%
%AMRoundRect*1,1,$1,$2,$3*1,1,$1,$4,$5*1,1,$1,0-$2,0-$3*1,1,$1,0-$4,0-$5*20,1,$1,$2,$3,$4,$5,0*20,1,$1,$4,$5,0-$2,0-$3,0*20,1,$1,0-$2,0-$3,0-$4,0-$5,0*20,1,$1,0-$4,0-$5,$2,$3,0*4,1,4,$2,$3,$4,$5,0-$2,0-$3,0-$4,0-$5,$2,$3,0*%
%ADD10C,1.6016*%
%ADD11C,2.6016*%
%ADD12RoundRect,0.1016X-0.85X0.85X0.85X0.85*%
%ADD13C,1.8016*%
%ADD14RoundRect,0.1016X-0.85X-0.85X-0.85X0.85*%
%ADD15RoundRect,0.1016X-0.7874X0.85X0.7874X0.85*%
%ADD16RoundRect,0.1016X-0.85X-0.7874X-0.85X0.7874*%
%ADD17RoundRect,0.1016X-1.0X1.0X1.0X1.0*%
%ADD18C,1.6256*%
%ADD19RoundRect,0.1035X-0.762X-0.762X-0.762X0.762*%
%ADD20RoundRect,0.1016X-0.762X-0.762X-0.762X0.762*%
%ADD21C,3.4036*%
%ADD22RoundRect,0.2032X-1.24968X1.24968X1.24968X1.24968*%
%ADD23C,3.00159*%
%ADD24RoundRect,0.1016X-0.8X-0.8X-0.8X0.8*%
%ADD25C,1.7016*%
%ADD26C,1.8542*%
%ADD27RoundRect,0.2032X-0.8255X0.8255X0.8255X0.8255*%
%ADD28C,5.89999*%
%ADD29C,1.9016*%
%ADD30RoundRect,0.1016X-0.7874X0.9X0.7874X0.9*%
%ADD31RoundRect,0.1016X-0.762X0.8X0.762X0.8*%
%ADD32C,1.6*%
%ADD33RoundRect,0.1X-0.75X-0.762X-0.75X0.762*%
%ADD34RoundRect,0.1016X-0.8X0.8X0.8X0.8*%
%ADD35RoundRect,0.1016X-0.5X0.69977X0.5X0.69977*%
%ADD36RoundRect,0.1016X-0.56627X0.68851X0.56627X0.68851*%
G75*


G04 Pad Start*
G54D10*
G01X2882900Y4150900D03*
G01X2628900Y4150900D03*
G01X2374900Y4150900D03*
G01X2120900Y4150900D03*
G01X1866900Y4150900D03*
G01X1612900Y4150900D03*
G01X3136900Y4150900D03*
G01X1358900Y4150900D03*
G01X2882900Y2630900D03*
G01X2628900Y2630900D03*
G01X2374900Y2630900D03*
G01X2120900Y2630900D03*
G01X1866900Y2630900D03*
G01X1612900Y2630900D03*
G01X3136900Y2630900D03*
G01X1358900Y2630900D03*
G54D11*
G01X1384300Y8953500D03*
G01X1765300Y8953500D03*
G01X1676400Y1473200D03*
G01X2057400Y1473200D03*
G54D12*
G01X4762500Y8039100D03*
G54D13*
G01X5016500Y8039100D03*
G01X5270500Y8039100D03*
G01X5524500Y8039100D03*
G54D14*
G01X9017000Y7531100D03*
G54D13*
G01X9017000Y7785100D03*
G01X9017000Y8039100D03*
G01X9017000Y8293100D03*
G54D14*
G01X9372600Y1714500D03*
G54D13*
G01X9372600Y1460500D03*
G01X9372600Y1206500D03*
G01X9372600Y952500D03*
G54D12*
G01X4991100Y2413000D03*
G54D13*
G01X5245100Y2413000D03*
G01X5499100Y2413000D03*
G01X5753100Y2413000D03*
G54D14*
G01X9525000Y7531100D03*
G54D13*
G01X9525000Y7785100D03*
G01X9525000Y8039100D03*
G01X9525000Y8293100D03*
G54D14*
G01X3073400Y6045200D03*
G54D13*
G01X3073400Y6299200D03*
G01X3073400Y6553200D03*
G01X3073400Y6807200D03*
G01X5537200Y7785100D03*
G01X5283200Y7785100D03*
G01X5029200Y7785100D03*
G01X4775200Y7785100D03*
G01X4521200Y7785100D03*
G01X4267200Y7785100D03*
G01X4013200Y7785100D03*
G01X3759200Y7785100D03*
G01X3505200Y7785100D03*
G54D15*
G01X3251200Y7785100D03*
G54D13*
G01X8826500Y228600D03*
G01X8826500Y482600D03*
G01X8826500Y736600D03*
G01X8826500Y990600D03*
G01X8826500Y1244600D03*
G01X8826500Y1498600D03*
G01X8826500Y1752600D03*
G01X8826500Y2006600D03*
G01X8826500Y2260600D03*
G54D16*
G01X8826500Y2514600D03*
G54D14*
G01X9271000Y7531100D03*
G54D13*
G01X9271000Y7785100D03*
G01X9271000Y8039100D03*
G01X9271000Y8293100D03*
G54D14*
G01X3060700Y4775200D03*
G54D13*
G01X3060700Y5029200D03*
G01X3060700Y5283200D03*
G01X3060700Y5537200D03*
G54D12*
G01X3835400Y2413000D03*
G54D13*
G01X4089400Y2413000D03*
G01X4343400Y2413000D03*
G01X4597400Y2413000D03*
G54D14*
G01X9105900Y1714500D03*
G54D13*
G01X9105900Y1460500D03*
G01X9105900Y1206500D03*
G01X9105900Y952500D03*
G54D17*
G01X5918200Y7797800D03*
G01X6172200Y7797800D03*
G01X6426200Y7797800D03*
G01X6680200Y7797800D03*
G01X6934200Y7797800D03*
G01X7188200Y7797800D03*
G01X5918200Y9067800D03*
G01X6172200Y9067800D03*
G01X6426200Y9067800D03*
G01X6680200Y9067800D03*
G01X6934200Y9067800D03*
G01X7188200Y9067800D03*
G54D18*
G01X825500Y7264400D03*
G01X825500Y7772400D03*
G01X825500Y8026400D03*
G01X825500Y8280400D03*
G54D20*
G01X825500Y8534400D03*
G54D18*
G01X825500Y7518400D03*
G01X825500Y5422900D03*
G01X825500Y5930900D03*
G01X825500Y6184900D03*
G01X825500Y6438900D03*
G54D20*
G01X825500Y6692900D03*
G54D18*
G01X825500Y5676900D03*
G54D10*
G01X3080000Y8570100D03*
G01X3334000Y8570100D03*
G01X3588000Y8570100D03*
G01X3842000Y8570100D03*
G54D21*
G01X401650Y349250D03*
G01X401729Y9149714D03*
G01X9455129Y349175D03*
G01X9455150Y9149650D03*
G54D18*
G01X7823200Y8763000D03*
G01X8077400Y8763000D03*
G01X8331400Y8763000D03*
G54D22*
G01X2635500Y1967230D03*
G01X2635500Y217170D03*
G01X6635500Y217170D03*
G01X6635500Y1967200D03*
G54D23*
G01X1092200Y1953209D03*
G01X1092200Y993191D03*
G01X1092200Y1473200D03*
G54D24*
G01X2413000Y5418887D03*
G54D25*
G01X2413000Y5168925D03*
G01X2413000Y4918913D03*
G54D24*
G01X2324100Y6125413D03*
G54D25*
G01X2324100Y6375375D03*
G01X2324100Y6625387D03*
G54D24*
G01X1701800Y5418887D03*
G54D25*
G01X1701800Y5168925D03*
G01X1701800Y4918913D03*
G54D24*
G01X1612900Y6125413D03*
G54D25*
G01X1612900Y6375375D03*
G01X1612900Y6625387D03*
G54D26*
G01X7175856Y8420557D03*
G01X6921856Y8420557D03*
G01X6667856Y8420557D03*
G01X6413856Y8420557D03*
G01X6159856Y8420557D03*
G01X5905602Y8420303D03*
G01X5651602Y8420303D03*
G54D27*
G01X5397500Y8420100D03*
G54D28*
G01X1896694Y406400D03*
G01X1176706Y406400D03*
G54D29*
G01X4339361Y6858000D03*
G01X4339361Y6604000D03*
G01X4593361Y6858000D03*
G01X4593361Y6604000D03*
G01X4847361Y6858000D03*
G01X4847361Y6604000D03*
G01X5101361Y6858000D03*
G01X5101361Y6604000D03*
G01X5355361Y6858000D03*
G01X5355361Y6604000D03*
G01X5609361Y6858000D03*
G01X5609361Y6604000D03*
G01X5863361Y6858000D03*
G01X5863361Y6604000D03*
G01X6117361Y6858000D03*
G01X6117361Y6604000D03*
G01X6371361Y6858000D03*
G01X6371361Y6604000D03*
G01X6625361Y6858000D03*
G01X6625361Y6604000D03*
G01X6879361Y6858000D03*
G01X6879361Y6604000D03*
G01X7133361Y6858000D03*
G01X7133361Y6604000D03*
G01X7387361Y6858000D03*
G01X7387361Y6604000D03*
G01X7641361Y6858000D03*
G01X7641361Y6604000D03*
G01X7895361Y6858000D03*
G01X7895361Y6604000D03*
G01X8149361Y6858000D03*
G01X8149361Y6604000D03*
G01X8403361Y6858000D03*
G01X8403361Y6604000D03*
G01X8657361Y6858000D03*
G01X8657361Y6604000D03*
G01X8911361Y6858000D03*
G01X8911361Y6604000D03*
G01X9165361Y6858000D03*
G54D30*
G01X9165361Y6604000D03*
G54D29*
G01X9173439Y3302000D03*
G01X9173439Y3048000D03*
G01X8919439Y3302000D03*
G01X8919439Y3048000D03*
G01X8665439Y3302000D03*
G01X8665439Y3048000D03*
G01X8411439Y3302000D03*
G01X8411439Y3048000D03*
G01X8157439Y3302000D03*
G01X8157439Y3048000D03*
G01X7903439Y3302000D03*
G01X7903439Y3048000D03*
G01X7649439Y3302000D03*
G01X7649439Y3048000D03*
G01X7395439Y3302000D03*
G01X7395439Y3048000D03*
G01X7141439Y3302000D03*
G01X7141439Y3048000D03*
G01X6887439Y3302000D03*
G01X6887439Y3048000D03*
G01X6633439Y3302000D03*
G01X6633439Y3048000D03*
G01X6379439Y3302000D03*
G01X6379439Y3048000D03*
G01X6125439Y3302000D03*
G01X6125439Y3048000D03*
G01X5871439Y3302000D03*
G01X5871439Y3048000D03*
G01X5617439Y3302000D03*
G01X5617439Y3048000D03*
G01X5363439Y3302000D03*
G01X5363439Y3048000D03*
G01X5109439Y3302000D03*
G01X5109439Y3048000D03*
G01X4855439Y3302000D03*
G01X4855439Y3048000D03*
G01X4601439Y3302000D03*
G01X4601439Y3048000D03*
G01X4347439Y3302000D03*
G54D30*
G01X4347439Y3048000D03*
G54D25*
G01X7130694Y533400D03*
G01X7380707Y533400D03*
G01X7630693Y533400D03*
G54D31*
G01X7880706Y533400D03*
G54D25*
G01X7130694Y1295400D03*
G01X7380707Y1295400D03*
G01X7630693Y1295400D03*
G54D31*
G01X7880706Y1295400D03*
G54D32*
G01X825500Y4069994D03*
G01X825500Y4320007D03*
G01X825500Y4569993D03*
G54D33*
G01X825500Y4820006D03*
G54D32*
G01X850900Y2685694D03*
G01X850900Y2935707D03*
G01X850900Y3185693D03*
G54D33*
G01X850900Y3435706D03*
G54D34*
G01X8382000Y7797800D03*
G54D25*
G01X8128000Y7797800D03*
G01X7874000Y7797800D03*
G54D34*
G01X8382000Y8064500D03*
G54D25*
G01X8128000Y8064500D03*
G01X7874000Y8064500D03*
G54D34*
G01X8382000Y8318500D03*
G54D25*
G01X8128000Y8318500D03*
G01X7874000Y8318500D03*
G01X7880706Y1943100D03*
G01X7630693Y1943100D03*
G01X7380707Y1943100D03*
G54D31*
G01X7130694Y1943100D03*
G54D25*
G01X2432406Y7861300D03*
G01X2182393Y7861300D03*
G01X1932407Y7861300D03*
G54D31*
G01X1682394Y7861300D03*
G54D35*
G01X9401429Y2311400D03*
G01X9191371Y2311400D03*
G54D36*
G01X9396400Y2044700D03*
G01X9196400Y2044700D03*
G54D18*
G01X5016500Y9182100D03*
G01X5016500Y8470900D03*
G01X9245600Y5321300D03*
G01X9151592Y4535170D03*
G01X9710392Y4230370D03*
G01X9684992Y4662170D03*
G01X9697692Y5132070D03*
G01X3398492Y1156970D03*
G04 Pad End*

M02*

