G04 Layer: CustomLayer1*
G04 EasyEDA Pro v3.2.135, 2026-05-31 20:18:14*
G04 Gerber Generator version 0.3*
G04 Scale: 100 percent, Rotated: No, Reflected: No*
G04 Dimensions in millimeters*
G04 Leading zeros omitted, absolute positions, 4 integers and 5 decimals*
G04 Generated by one-click*
G04 Object Configs: Pad,Via,Track,Text,Image,Dimension,BoardOutline,BoardCutout,CopperFilled,SolidRegion,FPCStiffener,Line,PlaneZone,ComponentProperty,ComponentSilkscreen,TearDrop*
G04 Layer Configs: 1,2,3,4,5,6,7,8,9,10,11,13,14,71,56*
G04 Copper Areas: 0*
%FSLAX45Y45*%
%MOMM*%
%ADD10C,0.254*%
%ADD11C,0.2247*%
G75*


G04 PolygonModel Start*
G36*
G01X825500Y7229348D02*
G01X816557Y7229348D01*
G01X800033Y7236193D01*
G01X787386Y7248839D01*
G01X780542Y7265363D01*
G01X780542Y7283249D01*
G01X787386Y7299773D01*
G01X800033Y7312420D01*
G01X816557Y7319264D01*
G01X825500Y7319264D01*
G01X834443Y7319264D01*
G01X850967Y7312420D01*
G01X863613Y7299773D01*
G01X870458Y7283249D01*
G01X870458Y7265363D01*
G01X863613Y7248839D01*
G01X850967Y7236193D01*
G01X834443Y7229348D01*
G01X825500Y7229348D01*
G37*
G36*
G01X825500Y7479538D02*
G01X816557Y7479538D01*
G01X800033Y7486383D01*
G01X787386Y7499029D01*
G01X780542Y7515553D01*
G01X780542Y7533439D01*
G01X787386Y7549963D01*
G01X800033Y7562610D01*
G01X816557Y7569454D01*
G01X825500Y7569454D01*
G01X834443Y7569454D01*
G01X850967Y7562610D01*
G01X863613Y7549963D01*
G01X870458Y7533439D01*
G01X870458Y7515553D01*
G01X863613Y7499029D01*
G01X850967Y7486383D01*
G01X834443Y7479538D01*
G01X825500Y7479538D01*
G37*
G36*
G01X825500Y7729474D02*
G01X816557Y7729474D01*
G01X800033Y7736319D01*
G01X787386Y7748965D01*
G01X780542Y7765489D01*
G01X780542Y7783375D01*
G01X787386Y7799899D01*
G01X800033Y7812546D01*
G01X816557Y7819390D01*
G01X825500Y7819390D01*
G01X834443Y7819390D01*
G01X850967Y7812546D01*
G01X863613Y7799899D01*
G01X870458Y7783375D01*
G01X870458Y7765489D01*
G01X863613Y7748965D01*
G01X850967Y7736319D01*
G01X834443Y7729474D01*
G01X825500Y7729474D01*
G37*
G36*
G01X825500Y7979410D02*
G01X816557Y7979410D01*
G01X800033Y7986255D01*
G01X787386Y7998901D01*
G01X780542Y8015425D01*
G01X780542Y8033311D01*
G01X787386Y8049835D01*
G01X800033Y8062482D01*
G01X816557Y8069326D01*
G01X825500Y8069326D01*
G01X834443Y8069326D01*
G01X850967Y8062482D01*
G01X863613Y8049835D01*
G01X870458Y8033311D01*
G01X870458Y8015425D01*
G01X863613Y7998901D01*
G01X850967Y7986255D01*
G01X834443Y7979410D01*
G01X825500Y7979410D01*
G37*
G36*
G01X825500Y8229346D02*
G01X816557Y8229346D01*
G01X800033Y8236191D01*
G01X787386Y8248837D01*
G01X780542Y8265361D01*
G01X780542Y8283247D01*
G01X787386Y8299771D01*
G01X800033Y8312418D01*
G01X816557Y8319262D01*
G01X825500Y8319262D01*
G01X834443Y8319262D01*
G01X850967Y8312418D01*
G01X863613Y8299771D01*
G01X870458Y8283247D01*
G01X870458Y8265361D01*
G01X863613Y8248837D01*
G01X850967Y8236191D01*
G01X834443Y8229346D01*
G01X825500Y8229346D01*
G37*
G36*
G01X825500Y8479536D02*
G01X816557Y8479536D01*
G01X800033Y8486381D01*
G01X787386Y8499027D01*
G01X780542Y8515551D01*
G01X780542Y8533437D01*
G01X787386Y8549961D01*
G01X800033Y8562608D01*
G01X816557Y8569452D01*
G01X825500Y8569452D01*
G01X834443Y8569452D01*
G01X850967Y8562608D01*
G01X863613Y8549961D01*
G01X870458Y8533437D01*
G01X870458Y8515551D01*
G01X863613Y8499027D01*
G01X850967Y8486381D01*
G01X834443Y8479536D01*
G01X825500Y8479536D01*
G37*
G36*
G01X825500Y5387848D02*
G01X816557Y5387848D01*
G01X800033Y5394693D01*
G01X787386Y5407339D01*
G01X780542Y5423863D01*
G01X780542Y5441749D01*
G01X787386Y5458273D01*
G01X800033Y5470920D01*
G01X816557Y5477764D01*
G01X825500Y5477764D01*
G01X834443Y5477764D01*
G01X850967Y5470920D01*
G01X863613Y5458273D01*
G01X870458Y5441749D01*
G01X870458Y5423863D01*
G01X863613Y5407339D01*
G01X850967Y5394693D01*
G01X834443Y5387848D01*
G01X825500Y5387848D01*
G37*
G36*
G01X825500Y5638038D02*
G01X816557Y5638038D01*
G01X800033Y5644883D01*
G01X787386Y5657529D01*
G01X780542Y5674053D01*
G01X780542Y5691939D01*
G01X787386Y5708463D01*
G01X800033Y5721110D01*
G01X816557Y5727954D01*
G01X825500Y5727954D01*
G01X834443Y5727954D01*
G01X850967Y5721110D01*
G01X863613Y5708463D01*
G01X870458Y5691939D01*
G01X870458Y5674053D01*
G01X863613Y5657529D01*
G01X850967Y5644883D01*
G01X834443Y5638038D01*
G01X825500Y5638038D01*
G37*
G36*
G01X825500Y5887974D02*
G01X816557Y5887974D01*
G01X800033Y5894819D01*
G01X787386Y5907465D01*
G01X780542Y5923989D01*
G01X780542Y5941875D01*
G01X787386Y5958399D01*
G01X800033Y5971046D01*
G01X816557Y5977890D01*
G01X825500Y5977890D01*
G01X834443Y5977890D01*
G01X850967Y5971046D01*
G01X863613Y5958399D01*
G01X870458Y5941875D01*
G01X870458Y5923989D01*
G01X863613Y5907465D01*
G01X850967Y5894819D01*
G01X834443Y5887974D01*
G01X825500Y5887974D01*
G37*
G36*
G01X825500Y6137910D02*
G01X816557Y6137910D01*
G01X800033Y6144755D01*
G01X787386Y6157401D01*
G01X780542Y6173925D01*
G01X780542Y6191811D01*
G01X787386Y6208335D01*
G01X800033Y6220982D01*
G01X816557Y6227826D01*
G01X825500Y6227826D01*
G01X834443Y6227826D01*
G01X850967Y6220982D01*
G01X863613Y6208335D01*
G01X870458Y6191811D01*
G01X870458Y6173925D01*
G01X863613Y6157401D01*
G01X850967Y6144755D01*
G01X834443Y6137910D01*
G01X825500Y6137910D01*
G37*
G36*
G01X825500Y6387846D02*
G01X816557Y6387846D01*
G01X800033Y6394691D01*
G01X787386Y6407337D01*
G01X780542Y6423861D01*
G01X780542Y6441747D01*
G01X787386Y6458271D01*
G01X800033Y6470918D01*
G01X816557Y6477762D01*
G01X825500Y6477762D01*
G01X834443Y6477762D01*
G01X850967Y6470918D01*
G01X863613Y6458271D01*
G01X870458Y6441747D01*
G01X870458Y6423861D01*
G01X863613Y6407337D01*
G01X850967Y6394691D01*
G01X834443Y6387846D01*
G01X825500Y6387846D01*
G37*
G36*
G01X825500Y6638036D02*
G01X816557Y6638036D01*
G01X800033Y6644881D01*
G01X787386Y6657527D01*
G01X780542Y6674051D01*
G01X780542Y6691937D01*
G01X787386Y6708461D01*
G01X800033Y6721108D01*
G01X816557Y6727952D01*
G01X825500Y6727952D01*
G01X834443Y6727952D01*
G01X850967Y6721108D01*
G01X863613Y6708461D01*
G01X870458Y6691937D01*
G01X870458Y6674051D01*
G01X863613Y6657527D01*
G01X850967Y6644881D01*
G01X834443Y6638036D01*
G01X825500Y6638036D01*
G37*
G54D10*

M02*

