;TYPE=PLATED
;Layer: PTH_Through
;EasyEDA Pro Client v3.2.135, 2026-05-31 20:18:26
;Gerber Generator version 0.3
M48
METRIC,LZ,0000.00000
;Hole size 1 = 0.30500 METRIC
T01C0.30500
;Hole size 2 = 0.76200 METRIC
T02C0.76200
;Hole size 3 = 0.81001 METRIC
T03C0.81001
;Hole size 4 = 0.90000 METRIC
T04C0.90000
;Hole size 5 = 0.90002 METRIC
T05C0.90002
;Hole size 6 = 0.91440 METRIC
T06C0.91440
;Hole size 7 = 1.00076 METRIC
T07C1.00076
;Hole size 8 = 1.02001 METRIC
T08C1.02001
;Hole size 9 = 1.10002 METRIC
T09C1.10002
;Hole size 10 = 1.50002 METRIC
T10C1.50002
;Hole size 11 = 1.90002 METRIC
T11C1.90002
;Hole size 12 = 3.20040 METRIC
T12C3.20040
;Hole size 13 = 4.39999 METRIC
T13C4.39999
%
G05
G90
T01
X52.197Y70.231
X51.816Y71.628
X30.988Y72.771
X32.37153Y72.65747
X33.51728Y59.55228
X34.544Y59.436
X37.465Y42.926
X38.227Y43.434
X45.974Y37.084
X47.117Y37.211
X47.117Y34.671
X50.292Y37.846
T02
X28.829Y41.509
X26.289Y41.509
X23.749Y41.509
X21.209Y41.509
X18.669Y41.509
X16.129Y41.509
X31.369Y41.509
X13.589Y41.509
X28.829Y26.309
X26.289Y26.309
X23.749Y26.309
X21.209Y26.309
X18.669Y26.309
X16.129Y26.309
X31.369Y26.309
X13.589Y26.309
X30.8Y85.701
X33.34Y85.701
X35.88Y85.701
X38.42Y85.701
T03
X71.75856Y84.20557
X69.21856Y84.20557
X66.67856Y84.20557
X64.13856Y84.20557
X61.59856Y84.20557
X59.05602Y84.20303
X56.51602Y84.20303
X53.975Y84.201
T04
X8.255Y72.644
X8.255Y77.724
X8.255Y80.264
X8.255Y82.804
X8.255Y85.344
X8.255Y75.184
X8.255Y54.229
X8.255Y59.309
X8.255Y61.849
X8.255Y64.389
X8.255Y66.929
X8.255Y56.769
T05
X8.255Y40.70007
X8.255Y43.20007
X8.255Y45.70006
X8.255Y48.20006
X8.509Y26.85707
X8.509Y29.35707
X8.509Y31.85706
X8.509Y34.35706
T06
X59.182Y77.978
X61.722Y77.978
X64.262Y77.978
X66.802Y77.978
X69.342Y77.978
X71.882Y77.978
X59.182Y90.678
X61.722Y90.678
X64.262Y90.678
X66.802Y90.678
X69.342Y90.678
X71.882Y90.678
X78.232Y87.63
X80.774Y87.63
X83.314Y87.63
X50.165Y91.821
X50.165Y84.709
X92.456Y53.213
X91.51592Y45.3517
X97.10392Y42.3037
X96.84992Y46.6217
X96.97692Y51.3207
T07
X26.355Y19.6723
X26.355Y2.1717
X66.355Y2.1717
X66.355Y19.672
T08
X83.82Y77.97805
X81.28Y77.97805
X78.74Y77.97805
X83.82Y80.64505
X81.28Y80.64505
X78.74Y80.64505
X83.82Y83.18505
X81.28Y83.18505
X78.74Y83.18505
T09
X47.625Y80.391
X50.165Y80.391
X52.705Y80.391
X55.245Y80.391
X90.17Y75.311
X90.17Y77.851
X90.17Y80.391
X90.17Y82.931
X93.726Y17.145
X93.726Y14.605
X93.726Y12.065
X93.726Y9.525
X49.911Y24.13
X52.451Y24.13
X54.991Y24.13
X57.531Y24.13
X95.25Y75.311
X95.25Y77.851
X95.25Y80.391
X95.25Y82.931
X30.734Y60.452
X30.734Y62.992
X30.734Y65.532
X30.734Y68.072
X55.372Y77.851
X52.832Y77.851
X50.292Y77.851
X47.752Y77.851
X45.212Y77.851
X42.672Y77.851
X40.132Y77.851
X37.592Y77.851
X35.052Y77.851
X32.512Y77.851
X88.265Y2.286
X88.265Y4.826
X88.265Y7.366
X88.265Y9.906
X88.265Y12.446
X88.265Y14.986
X88.265Y17.526
X88.265Y20.066
X88.265Y22.606
X88.265Y25.146
X92.71Y75.311
X92.71Y77.851
X92.71Y80.391
X92.71Y82.931
X30.607Y47.752
X30.607Y50.292
X30.607Y52.832
X30.607Y55.372
X38.354Y24.13
X40.894Y24.13
X43.434Y24.13
X45.974Y24.13
X91.059Y17.145
X91.059Y14.605
X91.059Y12.065
X91.059Y9.525
X24.13Y54.18861
X24.13Y51.68938
X24.13Y49.18913
X23.241Y61.25439
X23.241Y63.75362
X23.241Y66.25387
X17.018Y54.18861
X17.018Y51.68938
X17.018Y49.18913
X16.129Y61.25439
X16.129Y63.75362
X16.129Y66.25387
X43.39364Y68.58008
X43.39364Y66.04008
X45.93364Y68.58008
X45.93364Y66.04008
X48.47364Y68.58008
X48.47364Y66.04008
X51.01364Y68.58008
X51.01364Y66.04008
X53.55364Y68.58008
X53.55364Y66.04008
X56.09364Y68.58008
X56.09364Y66.04008
X58.63364Y68.58008
X58.63364Y66.04008
X61.17364Y68.58008
X61.17364Y66.04008
X63.71364Y68.58008
X63.71364Y66.04008
X66.25364Y68.58008
X66.25364Y66.04008
X68.79364Y68.58008
X68.79364Y66.04008
X71.33364Y68.58008
X71.33364Y66.04008
X73.87364Y68.58008
X73.87364Y66.04008
X76.41364Y68.58008
X76.41364Y66.04008
X78.95364Y68.58008
X78.95364Y66.04008
X81.49364Y68.58008
X81.49364Y66.04008
X84.03364Y68.58008
X84.03364Y66.04008
X86.57364Y68.58008
X86.57364Y66.04008
X89.11364Y68.58008
X89.11364Y66.04008
X91.65364Y68.58008
X91.65364Y66.04008
X91.73439Y33.02
X91.73439Y30.48
X89.19439Y33.02
X89.19439Y30.48
X86.65439Y33.02
X86.65439Y30.48
X84.11439Y33.02
X84.11439Y30.48
X81.57439Y33.02
X81.57439Y30.48
X79.03439Y33.02
X79.03439Y30.48
X76.49439Y33.02
X76.49439Y30.48
X73.95439Y33.02
X73.95439Y30.48
X71.41439Y33.02
X71.41439Y30.48
X68.87439Y33.02
X68.87439Y30.48
X66.33439Y33.02
X66.33439Y30.48
X63.79439Y33.02
X63.79439Y30.48
X61.25439Y33.02
X61.25439Y30.48
X58.71439Y33.02
X58.71439Y30.48
X56.17439Y33.02
X56.17439Y30.48
X53.63439Y33.02
X53.63439Y30.48
X51.09439Y33.02
X51.09439Y30.48
X48.55439Y33.02
X48.55439Y30.48
X46.01439Y33.02
X46.01439Y30.48
X43.47439Y33.02
X43.47439Y30.48
X71.30707Y5.334
X73.80707Y5.334
X76.30706Y5.334
X78.80706Y5.334
X71.30707Y12.954
X73.80707Y12.954
X76.30706Y12.954
X78.80706Y12.954
X78.80693Y19.431
X76.30693Y19.431
X73.80694Y19.431
X71.30694Y19.431
X24.32393Y78.613
X21.82393Y78.613
X19.32394Y78.613
X16.82394Y78.613
T10
X13.843Y89.535
X17.653Y89.535
X16.764Y14.732
X20.574Y14.732
T11
X10.92187Y19.53207
X10.92213Y9.93188
X10.922Y14.73197
T12
X4.0165Y3.4925
X4.01729Y91.49714
X94.55129Y3.49175
X94.5515Y91.4965
T13
X18.96699Y4.064
X11.76701Y4.064
M30